<?xml version="1.0" encoding="utf-8"?>
<svg width="1862.113" height="1049.4" viewBox="0 0 1862.113 1049.4" fill="none" xmlns="http://www.w3.org/2000/svg">
  <defs>
    <linearGradient id="gradient_1" gradientUnits="userSpaceOnUse" x1="106" y1="0" x2="106" y2="276.543">
      <stop offset="0" stop-color="#1AC41A" />
      <stop offset="0.845" stop-color="#274213" />
    </linearGradient>
    <filter color-interpolation-filters="sRGB" x="-589.9" y="-589.9" width="591.9" height="591.9" id="filter_2">
      <feFlood flood-opacity="0" result="BackgroundImageFix_1" />
      <feBlend mode="normal" in="SourceGraphic" in2="BackgroundImageFix_1" result="Shape_2" />
      <feGaussianBlur stdDeviation="4.5" />
    </filter>
  </defs>
  <g>
    <g>
      <path d="M212 0L212 0L212 0L212 64.5428C212 181.643 117.1 276.543 0.00012207 276.543L0.00012207 276.543L0.00012207 212C0.00012207 94.8998 94.8999 0 212 0L212 0Z" fill="url(#gradient_1)" transform="matrix(0.899 0.438 -0.438 0.899 1617.2 38)" />
      <path d="M295.95 295.95C295.95 295.95 0 295.95 0 295.95C0 257.085 7.65494 218.601 22.5278 182.695C37.4007 146.789 59.2002 114.163 86.6817 86.6818C114.163 59.2002 146.788 37.4008 182.695 22.5279C218.601 7.65497 257.085 0 295.95 0C334.815 0 373.299 7.65497 409.205 22.5279C445.111 37.4007 477.737 59.2003 505.218 86.6818C532.7 114.163 554.499 146.789 569.372 182.695C584.245 218.601 591.9 257.085 591.9 295.95C591.9 295.95 295.95 295.95 295.95 295.95Z" fill="#000000" fill-rule="evenodd" stroke-width="6" stroke="#000000" filter="url(#filter_2)" transform="translate(138 441)" />
      <path d="M100.729 59.8762L100.729 313.06L141.666 313.06L141.666 59.8762L240.782 59.8762L240.782 23.9807L1.61328 23.9807L1.61328 59.8762L100.729 59.8762ZM285.788 23.9807L285.788 313.06L495.615 313.06L495.615 277.165L327.128 277.165L327.128 183.796L472.021 183.796L472.021 148.707L327.128 148.707L327.128 59.8762L489.767 59.8762L489.767 23.9807L285.788 23.9807ZM562.498 23.9807L562.498 313.06L603.838 313.06L603.838 225.137L675.226 225.137Q684.78 225.137 693.627 224.379L755.789 313.06L800.759 313.06L732.197 216.311Q736.242 214.846 740.06 213.138Q766.981 201.139 781.4 178.654Q795.819 156.169 795.819 124.71Q795.819 77.2189 763.553 50.5998Q731.388 23.9807 675.226 23.9807L562.498 23.9807ZM603.838 189.947L603.838 59.8762L674.016 59.8762Q713.642 59.8762 734.111 76.8156Q754.579 93.7551 754.579 124.71Q754.579 155.665 734.111 172.806Q713.642 189.947 674.016 189.947L603.838 189.947ZM862.749 23.9807L862.749 313.06L904.089 313.06L904.089 225.137L975.477 225.137Q985.031 225.137 993.878 224.379L1056.04 313.06L1101.01 313.06L1032.45 216.311Q1036.49 214.846 1040.31 213.138Q1067.23 201.139 1081.65 178.654Q1096.07 156.169 1096.07 124.71Q1096.07 77.2189 1063.8 50.5998Q1031.64 23.9807 975.477 23.9807L862.749 23.9807ZM904.089 189.947L904.089 59.8762L974.267 59.8762Q1013.89 59.8762 1034.36 76.8156Q1054.83 93.7551 1054.83 124.71Q1054.83 155.665 1034.36 172.806Q1013.89 189.947 974.267 189.947L904.089 189.947ZM1250.12 23.9807L1119.24 313.06L1161.79 313.06L1193.55 240.765L1347.22 240.765L1378.98 313.06L1422.33 313.06L1291.05 23.9807L1250.12 23.9807ZM1332.73 207.794L1208.04 207.794L1270.38 65.8897L1332.73 207.794Z" fill="#000000" transform="matrix(1 -0.017 0.017 1 0 63)" />
      <path d="M-0.40332 23.9807L126.743 313.06L167.68 313.06L294.424 23.9807L253.184 23.9807L148.27 261.655L44.1636 23.9807L-0.40332 23.9807ZM331.218 313.06L331.218 23.9807L372.558 23.9807L372.558 313.06L331.218 313.06ZM409.293 23.9807L536.439 313.06L577.376 313.06L704.12 23.9807L662.88 23.9807L557.966 261.655L453.86 23.9807L409.293 23.9807ZM818.945 23.9807L688.068 313.06L730.618 313.06L762.381 240.765L916.043 240.765L947.806 313.06L991.163 313.06L859.882 23.9807L818.945 23.9807ZM901.557 207.794L776.867 207.794L839.212 65.8897L901.557 207.794Z" fill="#000000" transform="matrix(1 -0.017 0.017 1 865.5 379)" />
      <rect width="1812" height="45" fill="#000000" fill-rule="evenodd" transform="translate(37 710)" />
      <rect width="1849" height="45" fill="#000000" fill-rule="evenodd" />
    </g>
  </g>
</svg>