<?xml version="1.0" encoding="utf-8"?>
<svg width="1975.666" height="1792.454" viewBox="0 0 1975.666 1792.454" fill="none" xmlns="http://www.w3.org/2000/svg">
  <defs>
    <linearGradient id="gradient_1" gradientUnits="userSpaceOnUse" x1="547.5" y1="0" x2="547.5" y2="1536.454">
      <stop offset="0.181" stop-color="#000000" />
      <stop offset="1" stop-color="#A62100" />
    </linearGradient>
    <linearGradient id="gradient_2" gradientUnits="userSpaceOnUse" x1="674" y1="0" x2="674" y2="781.366">
      <stop offset="0" stop-color="#00C70A" />
      <stop offset="0.89" stop-color="#212B1D" />
    </linearGradient>
    <linearGradient id="gradient_3" gradientUnits="userSpaceOnUse" x1="414.362" y1="0" x2="414.362" y2="483.055">
      <stop offset="0" stop-color="#009924" />
      <stop offset="0.43" stop-color="#1B6321" />
      <stop offset="1" stop-color="#401F1F" />
    </linearGradient>
    <linearGradient id="gradient_4" gradientUnits="userSpaceOnUse" x1="516.495" y1="0" x2="516.495" y2="516.495">
      <stop offset="0" stop-color="#0B8C07" />
      <stop offset="1" stop-color="#2B4C2A" />
    </linearGradient>
  </defs>
  <g>
    <path d="M457.934 271.455C583.573 137.705 592.999 271.455 592.999 271.455C592.999 271.455 592.999 305.705 592.999 621.955C592.999 634.502 1095 -205.294 1095 47.4553C1095 190.151 781.345 695.244 642 1065.46L592.999 1536.45L250 1536.45L250 903.456C81.0289 684.624 0 528.722 0 363.455C0 149.567 171.533 729.824 363.342 726.189C363.394 726.188 363.447 724.456 363.5 724.455C363.5 724.455 332.294 405.205 457.934 271.455Z" fill="url(#gradient_1)" fill-rule="evenodd" transform="translate(492 256)" />
    <path d="M674 625.28C674 625.28 584.571 687.01 416.071 687.01C247.571 687.01 0 647.365 0 647.365C0 558.854 17.4335 471.21 51.3051 389.437C85.1768 307.663 134.823 313.952 197.41 251.366C259.997 188.779 334.298 58.5425 416.071 24.6707C497.845 -9.20099 585.489 1.65717 674 1.65717C762.511 1.65717 850.155 -9.20099 931.929 24.6707C1013.7 58.5423 1012.41 108.189 1075 170.776C1137.59 233.362 1262.82 307.663 1296.69 389.437C1330.57 471.21 1348 692.855 1348 781.365C1348 781.365 1319.09 726.26 1150.59 726.26C982.09 726.26 674 625.28 674 625.28Z" fill="url(#gradient_2)" fill-rule="evenodd" transform="translate(442 0)" />
    <path d="M381.255 409.501C381.255 409.501 307.812 483.056 205.437 483.056C103.062 483.056 77.0773 436.337 77.0773 436.337C77.0773 382.56 -17.6536 302.474 2.92572 252.792C23.5051 203.109 53.6687 157.966 91.6943 119.94C129.72 81.9144 225.411 70.1488 275.094 49.5694C324.777 28.9901 327.479 0 381.255 0C435.032 6.10352e-05 488.281 10.592 537.964 31.1714C587.647 51.7507 632.79 81.9144 670.816 119.94C708.842 157.966 803.46 268.372 824.039 318.055C844.619 367.738 790.755 355.724 790.755 409.501C790.755 409.501 381.255 409.501 381.255 409.501Z" fill="url(#gradient_3)" fill-rule="evenodd" transform="matrix(0.94 -0.342 0.342 0.94 0 638)" />
    <path d="M516.496 516.496C516.496 516.496 418.012 446.385 288.888 446.385C159.764 446.385 0 516.496 0 516.496C0 448.668 13.3595 381.505 39.3158 318.841C65.2722 256.177 136.69 270.808 184.651 222.847C232.612 174.885 256.177 65.2723 318.841 39.3159C381.505 13.3595 448.669 -6.10352e-05 516.496 -3.05176e-05C584.323 -6.10352e-05 628.025 49.5571 690.689 75.5134C732.447 92.8102 814.774 121.418 850.485 148.808C868.363 162.521 865.713 135.277 881.713 151.278C929.674 199.239 967.719 256.177 993.676 318.841C1019.63 381.506 1032.99 448.668 1032.99 516.496C1032.99 516.496 841.12 483.434 711.996 483.434C582.872 483.434 516.496 516.496 516.496 516.496Z" fill="url(#gradient_4)" fill-rule="evenodd" transform="matrix(0.906 0.423 -0.423 0.906 1039.458 266)" />
  </g>
</svg>